<?xml version="1.0" standalone="no"?>
<!DOCTYPE svg PUBLIC "-//W3C//DTD SVG 20010904//EN"
 "http://www.w3.org/TR/2001/REC-SVG-20010904/DTD/svg10.dtd">
 <svg
                version="1.0"
                xmlns="http://www.w3.org/2000/svg"
                width="24px"
                height="24px"
                viewBox="0 0 740 740"
                preserveAspectRatio="xMidYMid meet"
                style={{ verticalAlign: "middle" }}
              >
                <g
                  transform="translate(0.000000,740.000000) scale(0.100000,-0.100000)"
                  fill="var(--foriegn-text)"
                  stroke="none"
                >
                  <path d="M2117 5848 c-13 -18 -126 -185 -249 -370 l-225 -338 643 0 c354 0 644 -3 644 -6 0 -3 -272 -410 -605 -905 -333 -495 -605 -905 -605 -910 0 -5 98 -155 217 -334 152 -229 220 -322 227 -315 6 6 382 563 836 1238 l825 1227 722 5 722 5 246 365 c135 200 245 365 245 367 0 2 -814 3 -1809 3 l-1810 0 -24 -32z" />
                  <path d="M4099 4728 c-34 -51 -146 -217 -247 -368 -440 -654 -565 -839 -847 -1260 -165 -245 -361 -536 -436 -648 l-138 -204 244 -361 243 -362 1114 -3 1113 -2 247 367 247 368 -1151 3 c-936 2 -1149 4 -1145 15 4 12 101 156 744 1112 129 193 399 594 599 893 l365 542 -445 0 -445 0 -62 -92z" />
                </g>
              </svg>
